<svg width="500" height="500" viewBox="0 0 500 500" fill="none" xmlns="http://www.w3.org/2000/svg">
<rect width="500" height="500" rx="250" fill="#1E1E1E"/>
<g clip-path="url(#clip0_1387_2484)">
<path d="M249.555 250.333C249.555 236.336 255.115 222.912 265.013 213.014C274.911 203.116 288.335 197.556 302.332 197.556C316.33 197.556 329.754 203.116 339.652 213.014C349.55 222.912 355.11 236.336 355.11 250.333C355.11 264.331 349.55 277.755 339.652 287.653C329.754 297.551 316.33 303.111 302.332 303.111C288.335 303.111 274.911 297.551 265.013 287.653C255.115 277.755 249.555 264.331 249.555 250.333V250.333Z" fill="#1ABCFE"/>
<path d="M144 355.889C144 341.891 149.56 328.467 159.458 318.569C169.356 308.672 182.78 303.111 196.778 303.111H249.556V355.889C249.556 369.886 243.995 383.311 234.097 393.208C224.2 403.106 210.775 408.667 196.778 408.667C182.78 408.667 169.356 403.106 159.458 393.208C149.56 383.311 144 369.886 144 355.889V355.889Z" fill="#0ACF83"/>
<path d="M249.555 92V197.556H302.332C316.33 197.556 329.754 191.995 339.652 182.097C349.55 172.2 355.11 158.775 355.11 144.778C355.11 130.78 349.55 117.356 339.652 107.458C329.754 97.5605 316.33 92 302.332 92H249.555Z" fill="#FF7262"/>
<path d="M144 144.778C144 158.775 149.56 172.2 159.458 182.097C169.356 191.995 182.78 197.556 196.778 197.556H249.556V92H196.778C182.78 92 169.356 97.5605 159.458 107.458C149.56 117.356 144 130.78 144 144.778V144.778Z" fill="#F24E1E"/>
<path d="M144 250.333C144 264.331 149.56 277.755 159.458 287.653C169.356 297.551 182.78 303.111 196.778 303.111H249.556V197.556H196.778C182.78 197.556 169.356 203.116 159.458 213.014C149.56 222.912 144 236.336 144 250.333V250.333Z" fill="#A259FF"/>
</g>
<defs>
<clipPath id="clip0_1387_2484">
<rect width="211.111" height="316.667" fill="white" transform="translate(144 92)"/>
</clipPath>
</defs>
</svg>
